<?xml version="1.0" encoding="UTF-8"?>
<svg version="1.1" xmlns="http://www.w3.org/2000/svg" width="872" height="968">
<path d="M0 0 C287.76 0 575.52 0 872 0 C872 319.44 872 638.88 872 968 C584.24 968 296.48 968 0 968 C0 648.56 0 329.12 0 0 Z " fill="#A5A5A5" transform="translate(0,0)"/>
<path d="M0 0 C0.78988312 0.0036557 1.57976624 0.0073114 2.39358521 0.01107788 C20.31146255 0.10734661 38.62044078 0.80252717 56.10546875 4.9375 C64.13622213 6.73472857 71.99705937 6.93304 80.1875 7.0625 C81.66539255 7.09578587 83.14325828 7.13028522 84.62109375 7.16601562 C88.18469781 7.24960017 91.74837662 7.31699727 95.3125 7.375 C96.0940354 37.38097069 96.45644555 67.35903071 96.3125 97.375 C94.0025 97.375 91.6925 97.375 89.3125 97.375 C89.21751221 96.77139648 89.12252441 96.16779297 89.0246582 95.54589844 C85.56934383 74.03067091 79.90003533 54.92166206 61.68896484 41.14697266 C54.06167307 35.69517022 46.14304003 31.57117543 37.3125 28.375 C36.16201172 27.93220703 36.16201172 27.93220703 34.98828125 27.48046875 C24.64319176 23.71017581 13.92432069 23.00866255 3 23.0625 C1.81591553 23.06741455 0.63183105 23.0723291 -0.58813477 23.07739258 C-23.36913054 23.382014 -44.11940758 31.39947168 -60.6875 47.375 C-76.51342317 64.40173327 -83.86250458 84.508468 -83.875 107.625 C-83.88724609 108.80191406 -83.89949219 109.97882813 -83.91210938 111.19140625 C-83.94959503 133.6578098 -75.13667594 152.38714257 -59.6875 168.375 C-56.17497795 171.59395349 -52.47736363 174.49129927 -48.6875 177.375 C-47.52288762 178.28931262 -46.36021634 179.20610166 -45.19921875 180.125 C-40.14177066 184.12585935 -35.05586058 188.08968546 -29.96533203 192.04833984 C-29.16209503 192.6730014 -28.35885803 193.29766296 -27.53128052 193.94125366 C-26.92283295 194.41438995 -26.31438538 194.88752625 -25.6875 195.375 C-25.64099218 185.89932194 -25.60553757 176.42368367 -25.58387566 166.94791603 C-25.57347476 162.54710459 -25.55938368 158.14637171 -25.53662109 153.74560547 C-25.51476015 149.49214286 -25.50290364 145.23875543 -25.49774551 140.98524094 C-25.4940734 139.36908155 -25.48690322 137.7529259 -25.47603989 136.13679886 C-25.38769423 122.43876817 -25.81689919 111.48512133 -34.6875 100.375 C-43.63369549 91.42880451 -54.486948 89.72660092 -66.6875 89.375 C-66.6875 87.395 -66.6875 85.415 -66.6875 83.375 C-26.7575 83.375 13.1725 83.375 54.3125 83.375 C54.3125 85.355 54.3125 87.335 54.3125 89.375 C53.36890625 89.38917969 52.4253125 89.40335937 51.453125 89.41796875 C40.19623054 89.83614656 29.38789139 91.73620921 21.3125 100.375 C13.6898578 110.36049945 12.06738834 119.5391016 11.84741211 131.86669922 C11.82302567 132.86325531 11.79863922 133.8598114 11.77351379 134.88656616 C11.53755874 145.22400497 11.43229663 155.56427082 11.33764648 165.90380859 C11.28853679 170.79930417 11.19788757 175.69136211 11.07104492 180.58544922 C10.917564 186.52373803 10.83857945 192.45876277 10.81146431 198.3989296 C10.78890992 200.65020513 10.74066782 202.90138535 10.66541862 205.15151596 C9.91574265 216.83587024 9.91574265 216.83587024 13.78933716 227.48822784 C17.27994588 231.12828935 21.22744459 233.83725598 25.57853508 236.35133743 C27.77357989 237.64720287 29.71035395 239.18030454 31.6640625 240.8125 C32.75463015 241.66740475 33.84572994 242.52163134 34.9375 243.375 C41.2338916 248.30450751 41.2338916 248.30450751 43.9609375 250.75 C46.11091845 252.61367793 46.11091845 252.61367793 48.28588867 252.1640625 C50.6465433 251.24494001 51.52657487 250.34929463 53.08984375 248.375 C53.59636475 247.74408447 54.10288574 247.11316895 54.62475586 246.46313477 C55.16108643 245.77405029 55.69741699 245.08496582 56.25 244.375 C56.81920166 243.65948975 57.38840332 242.94397949 57.97485352 242.20678711 C62.51704017 236.47017591 66.94257263 230.64371266 71.3605957 224.8112793 C75.83471513 218.93056706 80.49906554 213.224728 85.22021484 207.54150391 C89.29767772 202.62787144 93.27518672 197.64875135 97.19970703 192.61254883 C100.68148497 188.15370889 104.23527985 183.75752722 107.8125 179.375 C113.73725512 172.11175042 119.54520006 164.76356142 125.3125 157.375 C127.10239551 155.08194207 128.8937569 152.7900497 130.6875 150.5 C131.13697998 149.92604492 131.58645996 149.35208984 132.04956055 148.76074219 C135.02572665 144.97451712 138.05234498 141.23326842 141.10473633 137.50830078 C146.18957942 131.30145714 151.1720055 125.03438876 156 118.625 C156.50523193 117.95742676 157.01046387 117.28985352 157.53100586 116.60205078 C157.99901611 115.97540527 158.46702637 115.34875977 158.94921875 114.703125 C159.35873779 114.1555957 159.76825684 113.60806641 160.19018555 113.04394531 C163.20004286 108.5681166 163.54763496 105.82946285 162.77734375 100.55859375 C162.13515094 97.54190654 161.36496661 95.70112882 159.3125 93.375 C153.67007841 90.20113786 147.65891256 89.35048837 141.3125 88.375 C141.3125 87.055 141.3125 85.735 141.3125 84.375 C179.5925 84.375 217.8725 84.375 257.3125 84.375 C257.3125 86.025 257.3125 87.675 257.3125 89.375 C256.25933594 89.40078125 255.20617187 89.4265625 254.12109375 89.453125 C231.70854273 90.22813845 212.5321443 97.36231013 196.87744141 113.69335938 C192.40723962 118.49690851 188.12619841 123.4521113 183.90771484 128.47705078 C181.31278793 131.56443398 178.68688432 134.62515949 176.0625 137.6875 C175.31734131 138.55991333 175.31734131 138.55991333 174.55712891 139.44995117 C171.63046292 142.86893984 168.65453222 146.2336899 165.625 149.5625 C162.59537132 152.89727114 159.70641908 156.30787639 156.875 159.8125 C153.01424863 164.586403 148.93812925 169.10888428 144.78125 173.625 C142.36871896 176.31237634 140.0799379 179.06465444 137.8125 181.875 C133.97414586 186.63239668 129.91627641 191.13283918 125.77734375 195.62890625 C123.38542703 198.29375166 121.11995116 201.02331825 118.875 203.8125 C115.21743736 208.34736161 111.36632973 212.63036183 107.40087891 216.89208984 C103.59851193 221.00279276 100.06979408 225.29775584 96.55859375 229.66015625 C94.2241941 232.48173495 91.79259402 235.18090712 89.3125 237.875 C85.16822696 242.37908589 81.26072904 247.02148337 77.43359375 251.796875 C74.9026344 254.87317918 72.20553897 257.76505101 69.4296875 260.62109375 C68.09560649 262.3022348 68.09560649 262.3022348 68.55883789 264.28686523 C69.42622522 266.69009291 70.40757115 267.79007711 72.25390625 269.5390625 C72.83720703 270.10367187 73.42050781 270.66828125 74.02148438 271.25 C74.63314453 271.8275 75.24480469 272.405 75.875 273 C77.08901382 274.15426655 78.29888572 275.31291034 79.50390625 276.4765625 C80.04217041 276.98525879 80.58043457 277.49395508 81.13500977 278.01806641 C82.3125 279.375 82.3125 279.375 82.3125 281.375 C82.90708008 281.64739502 83.50166016 281.91979004 84.11425781 282.20043945 C86.25690556 283.34529488 87.73256637 284.50144698 89.484375 286.16796875 C90.0621167 286.71203369 90.6398584 287.25609863 91.23510742 287.81665039 C91.83814697 288.39278076 92.44118652 288.96891113 93.0625 289.5625 C94.32327644 290.75360238 95.58498749 291.94371631 96.84765625 293.1328125 C97.44980957 293.70032227 98.05196289 294.26783203 98.67236328 294.85253906 C100.56521515 296.60958346 102.51850091 298.28144463 104.5 299.9375 C113.38835239 307.67714583 120.55484017 316.83706154 127.6027832 326.21606445 C131.88474161 331.89223825 136.46978851 337.16932394 141.3125 342.375 C142.50471213 343.7459163 143.69241999 345.12076624 144.875 346.5 C147.87997932 349.95607321 151.08163931 353.16307562 154.34375 356.375 C156.86675459 358.93805228 159.18812817 361.64845824 161.53125 364.375 C163.3867521 366.45837078 165.32473101 368.41781207 167.3125 370.375 C170.56279983 373.57529522 173.55974245 376.91724576 176.53125 380.375 C178.3867521 382.45837078 180.32473101 384.41781207 182.3125 386.375 C185.56279983 389.57529522 188.55974245 392.91724576 191.53125 396.375 C194.01507428 399.16385533 196.67961437 401.75186983 199.33984375 404.37109375 C201.88587829 406.95746151 204.23271557 409.6903528 206.59765625 412.44140625 C208.27254299 414.32994597 210.01197587 416.10655648 211.8125 417.875 C214.24639732 420.26553167 216.52605559 422.72546262 218.75 425.3125 C221.16867779 428.12076347 223.67149683 430.77470593 226.3125 433.375 C229.56279983 436.57529522 232.55974245 439.91724576 235.53125 443.375 C237.94347809 446.08346663 240.51658097 448.60652645 243.125 451.125 C244.93429091 452.98598493 246.61180185 454.87704259 248.296875 456.84765625 C252.9346154 462.18303331 257.92108292 467.16962939 262.91748047 472.1652832 C264.55077448 473.80075882 266.1758847 475.44407708 267.80078125 477.08789062 C274.31516934 483.63714604 281.05531896 489.64230817 288.3125 495.375 C289.53329506 496.38659923 290.75118961 497.40171953 291.96484375 498.421875 C331.38926355 531.07382071 379.0261596 551.70948615 430.3125 553.375 C430.3125 555.355 430.3125 557.335 430.3125 559.375 C385.24935883 573.15760967 335.06957964 561.01797047 294.46240234 540.0625 C286.78452398 535.94922336 279.49116141 531.29907823 272.3125 526.375 C271.65975098 525.93027344 271.00700195 525.48554687 270.33447266 525.02734375 C262.33059833 519.53990881 254.73553395 513.62658355 247.3125 507.375 C245.79064087 506.10873779 245.79064087 506.10873779 244.23803711 504.81689453 C235.83590647 497.77039873 227.96388014 490.30995845 220.25073242 482.51904297 C218.35723083 480.60705738 216.45562 478.70342351 214.55273438 476.80078125 C209.0858479 471.31760122 203.67970034 465.83630174 198.65795898 459.93652344 C196.81813663 457.80124785 194.8346355 455.83677325 192.8125 453.875 C189.3836721 450.49258601 186.19201482 446.99429558 183.05859375 443.33984375 C180.5962284 440.56899415 177.94928623 438.00185584 175.30859375 435.40234375 C172.63442633 432.6863107 170.14319543 429.83168648 167.66015625 426.94140625 C166.90400381 426.06251602 166.13232149 425.19482149 165.3125 424.375 C165.29791748 425.06311768 165.28333496 425.75123535 165.26831055 426.46020508 C164.20136458 471.77336277 152.10952594 510.17918873 120.3125 543.375 C119.77995605 543.94009277 119.24741211 544.50518555 118.69873047 545.08740234 C96.67398225 568.38615002 69.77665826 581.91243193 38.875 589.625 C37.89934082 589.87169434 36.92368164 590.11838867 35.91845703 590.37255859 C19.45702617 594.27394741 2.78698554 594.81945498 -14.0625 594.8125 C-15.57302948 594.81310425 -15.57302948 594.81310425 -17.11407471 594.8137207 C-48.4395776 594.74179785 -78.10402011 588.71986381 -105.6875 573.375 C-107.28078125 572.51261719 -107.28078125 572.51261719 -108.90625 571.6328125 C-120.26905589 565.27784116 -130.24060236 557.2909976 -139.6875 548.375 C-140.43644531 547.69050781 -141.18539062 547.00601563 -141.95703125 546.30078125 C-167.36564421 522.22712168 -181.77537315 483.38099891 -182.96875 448.84765625 C-183.22712643 436.07992702 -182.89994903 423.763616 -179.6875 411.375 C-179.45111816 410.46153809 -179.21473633 409.54807617 -178.97119141 408.60693359 C-170.15319705 375.33240241 -155.34743455 350.08840091 -132.6875 324.375 C-129.7175 326.355 -129.7175 326.355 -126.6875 328.375 C-127.21978192 332.92434706 -128.98831287 335.53703684 -131.6875 339.1875 C-143.21746529 355.32574997 -152.17666606 373.51165075 -157.5625 392.625 C-157.74135742 393.25970215 -157.92021484 393.8944043 -158.10449219 394.54833984 C-158.69486279 396.81367618 -159.19978202 399.08512754 -159.6875 401.375 C-159.94716553 402.57987061 -160.20683105 403.78474121 -160.47436523 405.02612305 C-162.52480056 415.14036005 -163.1297834 424.92735078 -163.02368164 435.23364258 C-162.99984447 437.7036154 -163.00318529 440.17251718 -163.00976562 442.64257812 C-162.98931024 455.84100557 -161.31869445 467.63347155 -157.0625 480.1875 C-156.53245361 481.75334839 -156.53245361 481.75334839 -155.99169922 483.35083008 C-144.11292958 517.40944874 -117.86745523 540.38065572 -86.234375 556.08984375 C-68.36676517 564.25492592 -49.05193179 567.76437345 -29.5 567.625 C-28.4771138 567.62034729 -28.4771138 567.62034729 -27.43356323 567.61560059 C-11.31514683 567.52969234 3.83257184 565.96819375 19.3125 561.375 C20.30902588 561.08181885 20.30902588 561.08181885 21.32568359 560.78271484 C39.28719195 555.34284498 56.04134407 546.56922978 70.3125 534.375 C71.10398437 533.74464844 71.89546875 533.11429688 72.7109375 532.46484375 C96.32227271 512.95442466 108.75029578 480.68039713 112.08544922 450.92871094 C115.48446108 412.69896458 101.93828755 376.85995377 77.62255859 347.59033203 C67.34164682 335.53354202 55.62488151 325.31481601 43.0625 315.71777344 C40.12477949 313.46366311 37.22048738 311.16725001 34.3125 308.875 C33.16293608 307.97113071 32.01319586 307.06748559 30.86328125 306.1640625 C30.28787598 305.71192383 29.7124707 305.25978516 29.11962891 304.79394531 C27.199126 303.28597951 25.27739133 301.7795934 23.35546875 300.2734375 C22.71029297 299.76748047 22.06511719 299.26152344 21.40039062 298.74023438 C20.15602187 297.76443441 18.91124557 296.78915388 17.66601562 295.81445312 C13.4249622 292.4874622 13.4249622 292.4874622 12.3125 291.375 C12.19544735 310.20371593 12.10740478 329.03235752 12.05343914 347.86136246 C12.02771051 356.60496469 11.99266284 365.34834021 11.93530273 374.09179688 C11.88530342 381.71690842 11.85317021 389.34185568 11.84205753 396.96712661 C11.83556655 401.00083629 11.8204242 405.03407619 11.78384972 409.06763458 C11.74962795 412.87296173 11.73949896 416.67763065 11.74696159 420.48309708 C11.74559861 421.87134263 11.73582252 423.25961279 11.71647263 424.64772415 C11.57445817 435.37165436 13.62362461 443.62469424 19.4375 452.6875 C26.50079441 459.29014477 33.66775664 463.3782788 43.3125 464.375 C44.32570313 464.48328125 45.33890625 464.5915625 46.3828125 464.703125 C49.02479816 464.95989087 51.66508057 465.18374156 54.3125 465.375 C54.3125 467.355 54.3125 469.335 54.3125 471.375 C14.3825 471.375 -25.5475 471.375 -66.6875 471.375 C-66.6875 469.395 -66.6875 467.415 -66.6875 465.375 C-65.57632813 465.28863281 -64.46515625 465.20226562 -63.3203125 465.11328125 C-51.06571342 464.01865287 -42.05562949 461.8086452 -33.375 452.48046875 C-27.4082394 445.03582995 -25.47213472 436.31251353 -25.35951233 426.9125061 C-25.34863112 426.2062718 -25.33774992 425.50003751 -25.32653898 424.77240217 C-25.29307793 422.42982716 -25.27345101 420.08736016 -25.25415039 417.74462891 C-25.23341034 416.05525417 -25.21200493 414.3658875 -25.18998718 412.67652893 C-25.12238149 407.15164784 -25.07661697 401.62669433 -25.03515625 396.1015625 C-25.02791306 395.15946285 -25.02066988 394.2173632 -25.0132072 393.24671507 C-24.94605484 384.35350031 -24.88794878 375.46026225 -24.84967899 366.56687355 C-24.80016831 355.21730464 -24.70730258 343.86991659 -24.55576712 332.52123892 C-24.45263562 324.52525149 -24.39949782 316.52985367 -24.3830089 308.53322351 C-24.37181531 303.7632908 -24.33882067 298.99587717 -24.25187874 294.22667313 C-24.17110063 289.73907052 -24.15251217 285.25538051 -24.18051338 280.76717949 C-24.18013204 279.12640067 -24.15771164 277.48544631 -24.11091232 275.84533501 C-23.70024616 267.32802998 -23.70024616 267.32802998 -26.9701221 259.7405715 C-30.49548377 256.33624793 -34.49979808 253.88161912 -38.6875 251.375 C-40.06065735 250.32951481 -41.42062577 249.26547749 -42.74609375 248.16015625 C-43.3088501 247.70761475 -43.87160645 247.25507324 -44.45141602 246.78881836 C-45.00369873 246.3428833 -45.55598145 245.89694824 -46.125 245.4375 C-50.97992363 241.53652628 -55.85020611 237.65698539 -60.75 233.8125 C-61.32355225 233.36197266 -61.89710449 232.91144531 -62.48803711 232.44726562 C-65.38000403 230.17765162 -68.27770331 227.91582363 -71.18359375 225.6640625 C-74.707029 222.92846698 -78.20717545 220.16523527 -81.6875 217.375 C-82.28095215 216.89949707 -82.8744043 216.42399414 -83.48583984 215.93408203 C-101.31458167 201.51597225 -114.91243691 184.47900785 -121.6875 162.375 C-121.93016602 161.60865234 -122.17283203 160.84230469 -122.42285156 160.05273438 C-129.29423414 137.6913181 -128.01135136 114.93006671 -122.6875 92.375 C-122.53796875 91.70194824 -122.3884375 91.02889648 -122.234375 90.33544922 C-115.46268547 60.30958976 -93.2463654 32.9927242 -67.6875 16.734375 C-47.20489409 4.27982386 -23.67432878 -0.24171874 0 0 Z " fill="#292828" transform="translate(335.6875,178.625)"/>
</svg>
